<?xml version="1.0" encoding="iso-8859-1"?>
<!-- Uploaded to: SVG Repo, www.svgrepo.com, Generator: SVG Repo Mixer Tools -->
<!DOCTYPE svg PUBLIC "-//W3C//DTD SVG 1.1//EN" "http://www.w3.org/Graphics/SVG/1.1/DTD/svg11.dtd">
<svg fill="rgb(100, 10, 120)" height="800px" width="800px" version="1.1" id="Capa_1" xmlns="http://www.w3.org/2000/svg" xmlns:xlink="http://www.w3.org/1999/xlink" 
	 viewBox="0 0 455 455" xml:space="preserve">
<g>
	<path d="M347.5,400H260v-32.5c0-4.142-3.358-7.5-7.5-7.5s-7.5,3.358-7.5,7.5V400h-35v-32.5c0-4.142-3.358-7.5-7.5-7.5
		s-7.5,3.358-7.5,7.5V400h-87.5c-4.142,0-7.5,3.358-7.5,7.5s3.358,7.5,7.5,7.5h240c4.142,0,7.5-3.358,7.5-7.5S351.642,400,347.5,400
		z"/>
	<path d="M437.5,40h-420C7.851,40,0,47.851,0,57.5v270c0,9.649,7.851,17.5,17.5,17.5H350v2.5c0,4.142,3.358,7.5,7.5,7.5
		s7.5-3.358,7.5-7.5V345h15v2.5c0,4.142,3.358,7.5,7.5,7.5s7.5-3.358,7.5-7.5V345h15v2.5c0,4.142,3.358,7.5,7.5,7.5
		s7.5-3.358,7.5-7.5V345h12.5c9.649,0,17.5-7.851,17.5-17.5v-270C455,47.851,447.149,40,437.5,40z M440,327.5
		c0,1.355-1.145,2.5-2.5,2.5h-420c-1.355,0-2.5-1.145-2.5-2.5v-270c0-1.355,1.145-2.5,2.5-2.5h420c1.355,0,2.5,1.145,2.5,2.5V327.5z
		"/>
	<path d="M417.5,70h-380c-4.142,0-7.5,3.358-7.5,7.5s3.358,7.5,7.5,7.5H410v152.5c0,4.142,3.358,7.5,7.5,7.5s7.5-3.358,7.5-7.5v-160
		C425,73.358,421.642,70,417.5,70z"/>
	<path d="M417.5,260c-4.142,0-7.5,3.358-7.5,7.5V300H45V107.5c0-4.142-3.358-7.5-7.5-7.5s-7.5,3.358-7.5,7.5v200
		c0,4.142,3.358,7.5,7.5,7.5h380c4.142,0,7.5-3.358,7.5-7.5v-40C425,263.358,421.642,260,417.5,260z"/>
</g>
</svg>